<svg width="65" height="55" viewBox="0 0 65 55" fill="none" xmlns="http://www.w3.org/2000/svg">
<g clip-path="url(#clip0)">
<path d="M27 33.4C26.1 40.2 13.9 39.7 9.29999 38.2C6.19999 37.2 4.89999 42 7.99999 43C16.5 45.7 30.7 44.1 32 33.4C32.4 30.2 27.4 30.3 27 33.4Z" fill="#9EAFDA"/>
<path d="M31.1998 4.00001C35.1998 11.7 35.2998 20.2 31.4998 28C30.0998 30.9 34.3998 33.4 35.7998 30.5C40.4998 21.1 40.3998 10.8 35.4998 1.40001C33.9998 -1.39999 29.6998 1.10001 31.1998 4.00001Z" fill="#9EAFDA"/>
<path d="M35.8 45.4C46.9 45 58.8 41 62.2 29.2C63.1 26.1 58.3 24.8 57.4 27.9C54.6 37.4 44.7 40.1 35.9 40.4C32.6 40.6 32.6 45.6 35.8 45.4Z" fill="#9EAFDA"/>
<path d="M63.6999 29.5C62.6999 26.3 59.7999 24.1 55.6999 23.1C51.9999 22.2 47.6999 22.5 43.4999 23.9C42.7999 24.1 42.1999 24.4 41.5999 24.6C42.4999 22.2 42.9999 19.4 42.9999 16.4C42.9999 7.20002 38.1999 -0.0999756 31.9999 -0.0999756C25.7999 -0.0999756 20.9999 7.10002 20.9999 16.4C20.9999 19.4 21.4999 22.2 22.3999 24.6C21.7999 24.3 21.0999 24.1 20.4999 23.9C16.2999 22.5 11.9999 22.2 8.2999 23.1C4.1999 24.1 1.3999 26.3 0.299899 29.5C-0.700101 32.7 0.199899 36.2 2.8999 39.4C5.2999 42.3 8.9999 44.6 13.1999 46C15.8999 46.9 18.5999 47.3 21.0999 47.3C24.0999 47.3 26.7999 46.7 28.9999 45.5V51.5C28.9999 53.2 30.2999 54.5 31.9999 54.5C33.6999 54.5 34.9999 53.2 34.9999 51.5V45.5C37.0999 46.7 39.8999 47.3 42.8999 47.3C45.3999 47.3 47.9999 46.9 50.7999 46C60.0999 42.9 65.7999 35.6 63.6999 29.5ZM32.0999 5.00002C34.8999 5.00002 38.0999 9.70002 38.0999 16.5C38.0999 23.3 34.8999 28 32.0999 28C29.2999 28 26.0999 23.3 26.0999 16.5C26.0999 9.70002 29.1999 5.00002 32.0999 5.00002ZM28.7999 38.8C27.7999 41.8 21.8999 43.5 14.8999 41.2C11.5999 40.1 8.6999 38.3 6.7999 36.1C5.2999 34.3 4.6999 32.5 5.0999 31C5.5999 29.6 7.1999 28.5 9.4999 27.9C10.4999 27.7 11.5999 27.6 12.6999 27.6C14.6999 27.6 16.8999 28 18.9999 28.7C25.9999 31 29.6999 35.8 28.7999 38.8ZM49.1999 41.2C42.1999 43.5 36.2999 41.8 35.2999 38.8C34.7999 37.4 35.3999 35.5 36.9999 33.7C38.7999 31.6 41.7999 29.7 45.0999 28.6C47.1999 27.9 49.3999 27.5 51.3999 27.5C52.4999 27.5 53.5999 27.6 54.5999 27.8C56.8999 28.3 58.4999 29.5 58.9999 30.9C59.9999 34 56.1999 38.9 49.1999 41.2Z" fill="#4F4F4F"/>
</g>
<defs>
<clipPath id="clip0">
<rect width="64.1" height="54.4" fill="white"/>
</clipPath>
</defs>
</svg>
